<svg width="186" height="143" viewBox="0 0 186 143" fill="none" xmlns="http://www.w3.org/2000/svg">
<path d="M97.9278 2.58408L97.7346 2.58408L97.5915 2.71406L2.66358 88.9882L1.70629 89.8582L2.99986 89.8582L12.0667 89.8582L2.66358 98.4041L1.70629 99.2741L2.99986 99.2741L10.4162 99.2741L2.66769 106.158L1.68413 107.032L2.99977 107.032L11.8854 107.032L3.27826 114.905L2.32838 115.774L3.61575 115.774L10.9469 115.774L2.66269 123.336L1.71034 124.205L2.99977 124.205L11.6265 124.205L2.66228 132.405L1.7124 133.274L2.99976 133.274L10.5718 133.274L2.66229 140.51L1.71241 141.379L2.99977 141.379L79.9137 141.379L80.0967 141.379L80.2364 141.26L182.323 54.9862L183.366 54.1043L182 54.1043L173.776 54.1043L182.323 46.8819L183.366 46L182 46L172.654 46L182.323 37.8125L183.364 36.931L182 36.931L174.006 36.931L182.939 29.3818L183.982 28.4999L182.616 28.4999L173.059 28.4999L182.323 20.6388L183.362 19.7575L182 19.7575L174.236 19.7575L182.324 12.8808L183.36 11.9999L182 11.9999L172.285 11.9999L182.324 3.46489L183.36 2.58397L182 2.58397L97.9278 2.58408Z" fill="#4BB43A" stroke="#45F36C"/>
<path d="M68.4999 32.25H126.5L113.5 44.25H55.4999L68.4999 32.25Z" fill="#D9D9D9"/>
<path d="M126.5 32.25V100.25L113.5 111.75V44.25L126.5 32.25Z" fill="#D9D9D9"/>
</svg>
