<svg width="66" height="59" viewBox="0 0 66 59" fill="none" xmlns="http://www.w3.org/2000/svg">
<path d="M27.1517 8.71137C28.6161 6.94296 28.6161 4.0758 27.1517 2.30739C25.6872 0.538976 23.3128 0.538976 21.8483 2.30739L1.84835 26.4583C1.11612 27.3425 0.75 28.5014 0.75 29.6603C0.75 30.2743 0.851196 30.8598 1.03455 31.3937C1.21754 31.9278 1.48881 32.4282 1.84835 32.8623L21.8483 57.0133C23.3128 58.7817 25.6872 58.7817 27.1517 57.0133C28.6161 55.2448 28.6161 52.3777 27.1517 50.6093L13.5533 34.1886H62C64.0711 34.1886 65.75 32.1612 65.75 29.6603C65.75 27.1594 64.0711 25.132 62 25.132H13.5533L27.1517 8.71137Z" fill="white"/>
</svg>
