<svg width="120" height="120" viewBox="0 0 120 120" fill="none" xmlns="http://www.w3.org/2000/svg">
<path d="M42.3481 42.3483C43.8126 40.8838 46.1869 40.8838 47.6514 42.3483L59.9998 54.6967L72.3482 42.3483C73.8126 40.8839 76.187 40.8839 77.6515 42.3483C79.1159 43.8128 79.1159 46.1872 77.6515 47.6517L65.3031 60L77.6514 72.3483C79.1159 73.8128 79.1159 76.1871 77.6514 77.6516C76.1869 79.1161 73.8126 79.1161 72.3481 77.6516L59.9998 65.3033L47.6514 77.6516C46.187 79.1161 43.8126 79.1161 42.3481 77.6516C40.8837 76.1872 40.8837 73.8128 42.3481 72.3483L54.6965 60L42.3481 47.6516C40.8836 46.1871 40.8836 43.8128 42.3481 42.3483Z" fill="white"/>
<path fill-rule="evenodd" clip-rule="evenodd" d="M36.5834 18.8438C52.0212 17.1184 67.9782 17.1184 83.4159 18.8438C92.5478 19.8644 99.9223 27.0576 100.997 36.2424C102.843 52.027 102.843 67.973 100.997 83.7576C99.9223 92.9424 92.5478 100.136 83.4159 101.156C67.9782 102.882 52.0212 102.882 36.5834 101.156C27.4515 100.136 20.077 92.9424 19.0028 83.7576C17.1566 67.973 17.1566 52.027 19.0028 36.2424C20.077 27.0576 27.4515 19.8644 36.5834 18.8438ZM82.5829 26.2974C67.6987 24.6339 52.3006 24.6339 37.4165 26.2974C31.6943 26.9369 27.1141 31.4531 26.452 37.1137C24.6736 52.3194 24.6736 67.6806 26.452 82.8864C27.1141 88.5469 31.6943 93.0631 37.4165 93.7027C52.3006 95.3662 67.6987 95.3662 82.5829 93.7027C88.305 93.0631 92.8853 88.5469 93.5473 82.8864C95.3258 67.6806 95.3258 52.3194 93.5473 37.1137C92.8853 31.4531 88.305 26.9369 82.5829 26.2974Z" fill="white"/>
</svg>
