<svg width="120" height="120" viewBox="0 0 120 120" fill="none" xmlns="http://www.w3.org/2000/svg">
<path d="M60 91.25C57.9289 91.25 56.25 92.9289 56.25 95C56.25 97.0711 57.9289 98.75 60 98.75H90C94.8325 98.75 98.75 94.8325 98.75 90V30C98.75 25.1675 94.8325 21.25 90 21.25H60C57.9289 21.25 56.25 22.9289 56.25 25C56.25 27.0711 57.9289 28.75 60 28.75L90 28.75C90.6904 28.75 91.25 29.3096 91.25 30L91.25 90C91.25 90.6904 90.6904 91.25 90 91.25H60Z" fill="white"/>
<path fill-rule="evenodd" clip-rule="evenodd" d="M72.5154 71.8261C75.9672 71.8261 78.7654 69.0279 78.7654 65.5761V54.3735C78.7654 50.9217 75.9672 48.1235 72.5154 48.1235L49.4524 48.1235C49.4198 47.7564 49.3856 47.3893 49.35 47.0224L49.0798 44.243C48.6677 40.0025 44.1647 37.4629 40.3226 39.3042C32.1514 43.2202 24.7542 48.5789 18.4868 55.1227L17.9908 55.6406C15.6697 58.0639 15.6697 61.8856 17.9908 64.309L18.4868 64.8269C24.7542 71.3706 32.1514 76.7294 40.3226 80.6453C44.1647 82.4866 48.6677 79.9471 49.0798 75.7065L49.35 72.9271C49.3856 72.5602 49.4198 72.1932 49.4524 71.8261H72.5154ZM45.9755 64.3261C44.6437 64.3261 43.4663 65.0225 42.8004 66.0799C42.4761 66.5948 42.2732 67.1953 42.2328 67.8427C42.1421 69.297 42.0262 70.7502 41.8852 72.2016L41.8067 73.0083C36.6265 70.3387 31.8158 67.0141 27.4919 63.1196C26.3701 62.1092 25.2811 61.0604 24.2269 59.9748C29.3446 54.7045 35.2826 50.3035 41.8067 46.9412L41.8852 47.7479C42.0262 49.1993 42.1421 50.6525 42.2328 52.107C42.3561 54.0835 43.9951 55.6235 45.9755 55.6235H71.2654V64.3261H45.9755Z" fill="white"/>
</svg>
