<svg width="120" height="120" viewBox="0 0 120 120" fill="none" xmlns="http://www.w3.org/2000/svg">
<path d="M32.144 12.0651C33.5058 10.5048 33.3448 8.13585 31.7844 6.77404C30.2241 5.41223 27.8552 5.5732 26.4933 7.13358L20.0343 14.5344C16.3705 18.7325 14.2993 24.085 14.1832 29.6558L13.8998 43.2441C13.8566 45.3147 15.5001 47.0283 17.5707 47.0715C19.6414 47.1147 21.3549 45.4711 21.3981 43.4005L21.6815 29.8122C21.761 26.0006 23.1781 22.3383 25.6849 19.466L32.144 12.0651Z" fill="black"/>
<path fill-rule="evenodd" clip-rule="evenodd" d="M31.185 38.504C31.8795 27.4004 41.0875 18.7503 52.2128 18.7503H54.9999V15.0003C54.9999 12.2389 57.2385 10.0003 59.9999 10.0003C62.7613 10.0003 64.9999 12.2389 64.9999 15.0003V18.7503H67.7869C78.9123 18.7503 88.1203 27.4004 88.8148 38.504L89.9198 56.1713C90.3411 62.9073 92.6025 69.3986 96.4578 74.9382C99.9412 79.9435 96.8402 86.8564 90.7855 87.5829L73.7499 89.6272V95.0003C73.7499 102.594 67.5938 108.75 59.9999 108.75C52.406 108.75 46.2499 102.594 46.2499 95.0003V89.6272L29.2143 87.5829C23.1596 86.8564 20.0585 79.9435 23.5419 74.9382C27.3972 69.3986 29.6587 62.9073 30.08 56.1713L31.185 38.504ZM52.2128 26.2503C45.0478 26.2503 39.1176 31.8212 38.6704 38.9722L37.5654 56.6395C37.0584 64.7452 34.3371 72.5563 29.6979 79.2224C29.4461 79.5842 29.6702 80.0838 30.1079 80.1364L48.7962 82.379C56.2386 83.272 63.7612 83.272 71.2036 82.379L89.8919 80.1364C90.3295 80.0838 90.5537 79.5842 90.3019 79.2224C85.6627 72.5564 82.9414 64.7452 82.4344 56.6395L81.3294 38.9722C80.8821 31.8212 74.952 26.2503 67.7869 26.2503H52.2128ZM59.9999 101.25C56.5481 101.25 53.7499 98.4521 53.7499 95.0003V91.2503H66.2499V95.0003C66.2499 98.4521 63.4517 101.25 59.9999 101.25Z" fill="black"/>
<path d="M88.2154 6.77404C86.655 8.13585 86.494 10.5048 87.8558 12.0651L94.3149 19.466C96.8217 22.3383 98.2388 26.0006 98.3183 29.8122L98.6017 43.4005C98.6449 45.4711 100.358 47.1147 102.429 47.0715C104.5 47.0283 106.143 45.3147 106.1 43.2441L105.817 29.6558C105.7 24.085 103.629 18.7325 99.9655 14.5344L93.5065 7.13358C92.1447 5.5732 89.7758 5.41223 88.2154 6.77404Z" fill="black"/>
<ellipse cx="98" cy="89.5" rx="22" ry="19.5" fill="#FB0000"/>
</svg>
