<svg width="76" height="99" viewBox="0 0 76 99" fill="none" xmlns="http://www.w3.org/2000/svg">
<path fill-rule="evenodd" clip-rule="evenodd" d="M42.9999 5C42.9999 2.23858 40.7614 0 37.9999 0C35.2385 0 32.9999 2.23858 32.9999 5V8.75H30.2129C19.0875 8.75 9.8795 17.4001 9.18502 28.5037L8.08001 46.171C7.6587 52.907 5.39726 59.3983 1.54196 64.9379C-1.94145 69.9432 1.15965 76.8561 7.2143 77.5826L24.2499 79.6269V85C24.2499 92.5939 30.406 98.75 37.9999 98.75C45.5939 98.75 51.7499 92.5939 51.7499 85V79.6269L68.7855 77.5826C74.8402 76.8561 77.9413 69.9432 74.4579 64.9379C70.6026 59.3983 68.3411 52.907 67.9198 46.171L66.8148 28.5037C66.1203 17.4001 56.9123 8.75 45.787 8.75H42.9999V5ZM30.2129 16.25C23.0478 16.25 17.1177 21.8209 16.6704 28.9719L15.5654 46.6392C15.0584 54.7449 12.3371 62.556 7.69789 69.2221C7.44612 69.5839 7.67026 70.0835 8.10789 70.1361L26.7962 72.3786C34.2386 73.2717 41.7612 73.2717 49.2036 72.3786L67.8919 70.1361C68.3296 70.0835 68.5537 69.5839 68.3019 69.2221C63.6627 62.556 60.9414 54.7449 60.4344 46.6392L59.3294 28.9719C58.8822 21.8209 52.952 16.25 45.787 16.25H30.2129ZM37.9999 91.25C34.5482 91.25 31.7499 88.4518 31.7499 85V81.25H44.2499V85C44.2499 88.4518 41.4517 91.25 37.9999 91.25Z" fill="#F8F8F8"/>
</svg>
