<svg width="120" height="120" viewBox="0 0 120 120" fill="none" xmlns="http://www.w3.org/2000/svg">
<path fill-rule="evenodd" clip-rule="evenodd" d="M31.25 27.5C31.25 18.5254 38.5254 11.25 47.5 11.25C52.5261 11.25 57.0192 13.5318 60 17.1161C62.9808 13.5318 67.4739 11.25 72.5 11.25C81.4746 11.25 88.75 18.5254 88.75 27.5C88.75 30.7216 87.8125 33.7242 86.1955 36.25H90C97.5939 36.25 103.75 42.4061 103.75 50V60C103.75 64.0208 101.038 67.4081 97.3435 68.4326C98.0638 77.5656 97.6466 86.7583 96.0975 95.7986C95.1724 101.197 90.7881 105.332 85.345 105.941L80.7726 106.452C66.9672 107.995 53.0328 107.995 39.2274 106.452L34.655 105.941C29.212 105.332 24.8276 101.197 23.9026 95.7986C22.3534 86.7583 21.9362 77.5656 22.6565 68.4326C18.962 67.4081 16.25 64.0208 16.25 60V50C16.25 42.4061 22.4061 36.25 30 36.25H33.8045C32.1875 33.7242 31.25 30.7216 31.25 27.5ZM56.25 27.5C56.25 22.6675 52.3325 18.75 47.5 18.75C42.6675 18.75 38.75 22.6675 38.75 27.5C38.75 32.3325 42.6675 36.25 47.5 36.25C52.3325 36.25 56.25 32.3325 56.25 27.5ZM72.5 36.25C77.3325 36.25 81.25 32.3325 81.25 27.5C81.25 22.6675 77.3325 18.75 72.5 18.75C67.6675 18.75 63.75 22.6675 63.75 27.5C63.75 32.3325 67.6675 36.25 72.5 36.25ZM23.75 50C23.75 46.5482 26.5482 43.75 30 43.75H56.25V61.25H25C24.3096 61.25 23.75 60.6904 23.75 60V50ZM63.75 68.75H89.8449C90.5463 77.353 90.1646 86.0149 88.7052 94.5319C88.3444 96.6371 86.6346 98.2499 84.5119 98.4871L79.9396 98.9981C74.5579 99.5996 69.1559 99.9568 63.75 100.07V68.75ZM63.75 61.25H95C95.6904 61.25 96.25 60.6904 96.25 60V50C96.25 46.5482 93.4518 43.75 90 43.75H63.75V61.25ZM56.25 68.75V100.07C50.8441 99.9568 45.4421 99.5996 40.0605 98.9981L35.4881 98.4871C33.3654 98.2499 31.6556 96.6371 31.2948 94.5319C29.8354 86.0149 29.4537 77.353 30.1552 68.75H56.25Z" fill="white"/>
</svg>
